<svg width="226" height="53" viewBox="0 0 226 53" fill="none" xmlns="http://www.w3.org/2000/svg">
<path d="M87.308 15.908L80.036 41H76.364L70.532 20.804L64.484 41L60.848 41.036L53.828 15.908H57.32L62.792 37.184L68.84 15.908H72.512L78.272 37.112L83.78 15.908H87.308ZM99.4971 41.324C97.6491 41.324 95.9691 40.904 94.4571 40.064C92.9691 39.224 91.7931 38.036 90.9291 36.5C90.0891 34.94 89.6691 33.14 89.6691 31.1C89.6691 29.084 90.1011 27.308 90.9651 25.772C91.8531 24.212 93.0531 23.024 94.5651 22.208C96.0771 21.368 97.7691 20.948 99.6411 20.948C101.513 20.948 103.205 21.368 104.717 22.208C106.229 23.024 107.417 24.2 108.281 25.736C109.169 27.272 109.613 29.06 109.613 31.1C109.613 33.14 109.157 34.94 108.245 36.5C107.357 38.036 106.145 39.224 104.609 40.064C103.073 40.904 101.369 41.324 99.4971 41.324ZM99.4971 38.444C100.673 38.444 101.777 38.168 102.809 37.616C103.841 37.064 104.669 36.236 105.293 35.132C105.941 34.028 106.265 32.684 106.265 31.1C106.265 29.516 105.953 28.172 105.329 27.068C104.705 25.964 103.889 25.148 102.881 24.62C101.873 24.068 100.781 23.792 99.6051 23.792C98.4051 23.792 97.3011 24.068 96.2931 24.62C95.3091 25.148 94.5171 25.964 93.9171 27.068C93.3171 28.172 93.0171 29.516 93.0171 31.1C93.0171 32.708 93.3051 34.064 93.8811 35.168C94.4811 36.272 95.2731 37.1 96.2571 37.652C97.2411 38.18 98.3211 38.444 99.4971 38.444ZM117.196 24.476C117.772 23.348 118.588 22.472 119.644 21.848C120.724 21.224 122.032 20.912 123.568 20.912V24.296H122.704C119.032 24.296 117.196 26.288 117.196 30.272V41H113.92V21.272H117.196V24.476ZM138.366 41L130.626 32.288V41H127.35V14.36H130.626V30.02L138.222 21.272H142.794L133.506 31.1L142.83 41H138.366Z" fill="currentColor"/>
<path d="M168.12 15.728V41H161.964V30.596H152.388V41H146.232V15.728H152.388V25.628H161.964V15.728H168.12ZM175.66 18.824C174.58 18.824 173.692 18.512 172.996 17.888C172.324 17.24 171.988 16.448 171.988 15.512C171.988 14.552 172.324 13.76 172.996 13.136C173.692 12.488 174.58 12.164 175.66 12.164C176.716 12.164 177.58 12.488 178.252 13.136C178.948 13.76 179.296 14.552 179.296 15.512C179.296 16.448 178.948 17.24 178.252 17.888C177.58 18.512 176.716 18.824 175.66 18.824ZM178.72 20.912V41H172.564V20.912H178.72ZM192.217 35.24L196.573 20.912H203.125L195.997 41H188.401L181.273 20.912H187.861L192.217 35.24ZM224.652 30.632C224.652 31.208 224.616 31.808 224.544 32.432H210.612C210.708 33.68 211.104 34.64 211.8 35.312C212.52 35.96 213.396 36.284 214.428 36.284C215.964 36.284 217.032 35.636 217.632 34.34H224.184C223.848 35.66 223.236 36.848 222.348 37.904C221.484 38.96 220.392 39.788 219.072 40.388C217.752 40.988 216.276 41.288 214.644 41.288C212.676 41.288 210.924 40.868 209.388 40.028C207.852 39.188 206.652 37.988 205.788 36.428C204.924 34.868 204.492 33.044 204.492 30.956C204.492 28.868 204.912 27.044 205.752 25.484C206.616 23.924 207.816 22.724 209.352 21.884C210.888 21.044 212.652 20.624 214.644 20.624C216.588 20.624 218.316 21.032 219.828 21.848C221.34 22.664 222.516 23.828 223.356 25.34C224.22 26.852 224.652 28.616 224.652 30.632ZM218.352 29.012C218.352 27.956 217.992 27.116 217.272 26.492C216.552 25.868 215.652 25.556 214.572 25.556C213.54 25.556 212.664 25.856 211.944 26.456C211.248 27.056 210.816 27.908 210.648 29.012H218.352Z" fill="currentColor"/>
<path d="M36.4376 48.5833C36.0508 48.586 35.67 48.487 35.3334 48.2963L32.2859 46.5296C31.8053 46.224 31.4612 45.7445 31.3257 45.1913C31.1902 44.6381 31.2737 44.0539 31.5587 43.5608C31.8438 43.0677 32.3083 42.7037 32.8554 42.5451C33.4024 42.3864 33.9896 42.4452 34.4943 42.7092L36.4376 43.8354L44.1668 39.4188V30.5854L36.4376 26.1688L28.7084 30.5854V39.75C28.7084 40.3357 28.4758 40.8974 28.0616 41.3115C27.6475 41.7257 27.0858 41.9583 26.5001 41.9583C25.9144 41.9583 25.3527 41.7257 24.9386 41.3115C24.5244 40.8974 24.2918 40.3357 24.2918 39.75V29.15C24.2902 28.7609 24.3915 28.3782 24.5854 28.0409C24.7793 27.7035 25.0589 27.4233 25.3959 27.2288L35.3334 21.5092C35.6691 21.3153 36.05 21.2133 36.4376 21.2133C36.8252 21.2133 37.2061 21.3153 37.5418 21.5092L47.4793 27.2508C47.8163 27.4454 48.0959 27.7256 48.2898 28.0629C48.4837 28.4003 48.585 28.783 48.5834 29.1721V40.6333C48.585 41.0225 48.4837 41.4051 48.2898 41.7425C48.0959 42.0799 47.8163 42.36 47.4793 42.5546L37.5418 48.2963C37.2052 48.487 36.8244 48.586 36.4376 48.5833Z" fill="currentColor"/>
<path d="M16.5626 48.5833C16.1758 48.586 15.795 48.487 15.4584 48.2963L5.52093 42.5546C5.18393 42.36 4.90432 42.0799 4.71043 41.7425C4.51653 41.4051 4.41522 41.0225 4.41677 40.6333V29.1721C4.41522 28.783 4.51653 28.4003 4.71043 28.0629C4.90432 27.7256 5.18393 27.4454 5.52093 27.2508L15.4584 21.5092C15.7941 21.3153 16.175 21.2133 16.5626 21.2133C16.9502 21.2133 17.3311 21.3153 17.6668 21.5092L27.6043 27.2508C27.8682 27.3889 28.1014 27.5789 28.29 27.8094C28.4786 28.04 28.6186 28.3063 28.7015 28.5923C28.7845 28.8784 28.8088 29.1782 28.7729 29.4739C28.737 29.7696 28.6416 30.0549 28.4926 30.3128C28.3435 30.5706 28.1438 30.7957 27.9056 30.9743C27.6673 31.153 27.3953 31.2817 27.106 31.3525C26.8168 31.4234 26.5161 31.435 26.2222 31.3867C25.9284 31.3383 25.6473 31.231 25.3959 31.0713L16.5626 25.97L8.83343 30.3867V39.22L16.5626 43.6367L25.3959 38.5354C25.6467 38.3885 25.9239 38.2925 26.2118 38.2529C26.4997 38.2134 26.7926 38.231 27.0737 38.3049C27.3547 38.3788 27.6185 38.5074 27.8497 38.6833C28.081 38.8593 28.2752 39.0792 28.4213 39.3304C28.5674 39.5825 28.6621 39.8609 28.7 40.1497C28.738 40.4385 28.7184 40.732 28.6424 41.0132C28.5665 41.2944 28.4357 41.5578 28.2575 41.7882C28.0793 42.0187 27.8573 42.2116 27.6043 42.3558L17.6668 48.2963C17.3302 48.487 16.9494 48.586 16.5626 48.5833Z" fill="currentColor"/>
<path d="M36.4376 25.6167C35.8519 25.6167 35.2902 25.384 34.8761 24.9699C34.4619 24.5557 34.2293 23.994 34.2293 23.4083V13.25L26.5001 8.83333L18.7709 13.25V23.4083C18.7709 23.994 18.5383 24.5557 18.1241 24.9699C17.71 25.384 17.1483 25.6167 16.5626 25.6167C15.9769 25.6167 15.4152 25.384 15.0011 24.9699C14.5869 24.5557 14.3543 23.994 14.3543 23.4083V11.9471C14.3527 11.558 14.454 11.1753 14.6479 10.8379C14.8418 10.5006 15.1214 10.2204 15.4584 10.0258L25.3959 4.28417C25.7316 4.09035 26.1125 3.98831 26.5001 3.98831C26.8877 3.98831 27.2686 4.09035 27.6043 4.28417L37.5418 10.0258C37.8788 10.2204 38.1584 10.5006 38.3523 10.8379C38.5462 11.1753 38.6475 11.558 38.6459 11.9471V23.4083C38.6459 23.994 38.4133 24.5557 37.9991 24.9699C37.585 25.384 37.0233 25.6167 36.4376 25.6167Z" fill="currentColor"/>
</svg>
